HIERARCHY
ROOT hip
{
  OFFSET 0 0 0
  CHANNELS 6 Xposition Yposition Zposition Zrotation Yrotation Xrotation
  JOINT abdomen
  {
    OFFSET 0 20.6881 -0.73152
    CHANNELS 3 Zrotation Xrotation Yrotation
    JOINT chest
    {
      OFFSET 0 11.7043 -0.48768
      CHANNELS 3 Zrotation Xrotation Yrotation
      JOINT neck
      {
        OFFSET 0 22.1894 -2.19456
        CHANNELS 3 Zrotation Xrotation Yrotation
        JOINT head
        {
          OFFSET -0.24384 7.07133 1.2192
          CHANNELS 3 Zrotation Xrotation Yrotation
          JOINT leftEye
          {
            OFFSET 4.14528 8.04674 8.04672
            CHANNELS 3 Zrotation Xrotation Yrotation
            End Site
            {
              OFFSET 1 0 0
            }
          }
          JOINT rightEye
          {
            OFFSET -3.6576 8.04674 8.04672
            CHANNELS 3 Zrotation Xrotation Yrotation
            End Site
            {
              OFFSET 1 0 0
            }
          }
        }
      }
      JOINT rCollar
      {
        OFFSET -2.68224 19.2634 -4.8768
        CHANNELS 3 Zrotation Xrotation Yrotation
        JOINT rShldr
        {
          OFFSET -8.77824 -1.95073 1.46304
          CHANNELS 3 Zrotation Xrotation Yrotation
          JOINT rForeArm
          {
            OFFSET -28.1742 -1.7115 0.48768
            CHANNELS 3 Zrotation Xrotation Yrotation
            JOINT rHand
            {
              OFFSET -22.5879 0.773209 7.07136
              CHANNELS 3 Zrotation Xrotation Yrotation
              JOINT rThumb1
              {
                OFFSET -1.2192 -0.487915 3.41376
                CHANNELS 3 Zrotation Xrotation Yrotation
                JOINT rThumb2
                {
                  OFFSET -3.37035 -0.52449 3.41376
                  CHANNELS 3 Zrotation Xrotation Yrotation
                  End Site
                  {
                    OFFSET -1.78271 -1.18214 1.43049
                  }
                }
              }
              JOINT rIndex1
              {
                OFFSET -7.75947 0.938293 5.60832
                CHANNELS 3 Zrotation Xrotation Yrotation
                JOINT rIndex2
                {
                  OFFSET -2.54057 -0.884171 1.56538
                  CHANNELS 3 Zrotation Xrotation Yrotation
                  End Site
                  {
                    OFFSET -1.62519 -0.234802 1.16502
                  }
                }
              }
              JOINT rMid1
              {
                OFFSET -8.24714 1.18213 3.41376
                CHANNELS 3 Zrotation Xrotation Yrotation
                JOINT rMid2
                {
                  OFFSET -3.10165 -0.590103 1.0647
                  CHANNELS 3 Zrotation Xrotation Yrotation
                  End Site
                  {
                    OFFSET -2.48547 -0.328903 0.83742
                  }
                }
              }
              JOINT rRing1
              {
                OFFSET -8.82822 0.546677 1.51678
                CHANNELS 3 Zrotation Xrotation Yrotation
                JOINT rRing2
                {
                  OFFSET -2.60934 -0.819778 -0.0198488
                  CHANNELS 3 Zrotation Xrotation Yrotation
                  End Site
                  {
                    OFFSET -2.33842 -0.294052 0.168128
                  }
                }
              }
              JOINT rPinky1
              {
                OFFSET -8.27202 -0.0477905 -0.4584
                CHANNELS 3 Zrotation Xrotation Yrotation
                JOINT rPinky2
                {
                  OFFSET -1.82734 -0.647385 -0.700984
                  CHANNELS 3 Zrotation Xrotation Yrotation
                  End Site
                  {
                    OFFSET -1.69225 -0.51767 -0.607171
                  }
                }
              }
            }
          }
        }
      }
      JOINT lCollar
      {
        OFFSET 2.68224 19.2634 -4.8768
        CHANNELS 3 Zrotation Xrotation Yrotation
        JOINT lShldr
        {
          OFFSET 8.77824 -1.95073 1.46304
          CHANNELS 3 Zrotation Xrotation Yrotation
          JOINT lForeArm
          {
            OFFSET 28.1742 -1.7115 0.48768
            CHANNELS 3 Zrotation Xrotation Yrotation
            JOINT lHand
            {
              OFFSET 22.5879 0.773209 7.07136
              CHANNELS 3 Zrotation Xrotation Yrotation
              JOINT lThumb1
              {
                OFFSET 1.2192 -0.487915 3.41376
                CHANNELS 3 Zrotation Xrotation Yrotation
                JOINT lThumb2
                {
                  OFFSET 3.37035 -0.52449 3.41376
                  CHANNELS 3 Zrotation Xrotation Yrotation
                  End Site
                  {
                    OFFSET 1.78271 -1.18214 1.43049
                  }
                }
              }
              JOINT lIndex1
              {
                OFFSET 7.75947 0.938293 5.60832
                CHANNELS 3 Zrotation Xrotation Yrotation
                JOINT lIndex2
                {
                  OFFSET 2.54057 -0.884171 1.56538
                  CHANNELS 3 Zrotation Xrotation Yrotation
                  End Site
                  {
                    OFFSET 1.62519 -0.234802 1.16502
                  }
                }
              }
              JOINT lMid1
              {
                OFFSET 8.24714 1.18213 3.41376
                CHANNELS 3 Zrotation Xrotation Yrotation
                JOINT lMid2
                {
                  OFFSET 3.10165 -0.590103 1.0647
                  CHANNELS 3 Zrotation Xrotation Yrotation
                  End Site
                  {
                    OFFSET 2.48547 -0.328903 0.83742
                  }
                }
              }
              JOINT lRing1
              {
                OFFSET 8.82822 0.546677 1.51678
                CHANNELS 3 Zrotation Xrotation Yrotation
                JOINT lRing2
                {
                  OFFSET 2.60934 -0.819778 -0.0198488
                  CHANNELS 3 Zrotation Xrotation Yrotation
                  End Site
                  {
                    OFFSET 2.33842 -0.294052 0.168128
                  }
                }
              }
              JOINT lPinky1
              {
                OFFSET 8.27202 -0.0477905 -0.4584
                CHANNELS 3 Zrotation Xrotation Yrotation
                JOINT lPinky2
                {
                  OFFSET 1.82734 -0.647385 -0.700984
                  CHANNELS 3 Zrotation Xrotation Yrotation
                  End Site
                  {
                    OFFSET 1.69225 -0.51767 -0.607171
                  }
                }
              }
            }
          }
        }
      }
    }
  }
  JOINT rButtock
  {
    OFFSET -8.77824 4.35084 1.2192
    CHANNELS 3 Zrotation Xrotation Yrotation
    JOINT rThigh
    {
      OFFSET 0 -1.70687 -2.19456
      CHANNELS 3 Zrotation Xrotation Yrotation
      JOINT rShin
      {
        OFFSET 0 -36.8199 0.73152
        CHANNELS 3 Zrotation Xrotation Yrotation
        JOINT rFoot
        {
          OFFSET 0.73152 -45.1104 -5.12064
          CHANNELS 3 Zrotation Xrotation Yrotation
          End Site
          {
            OFFSET -1.1221 -3.69964 12.103
          }
        }
      }
    }
  }
  JOINT lButtock
  {
    OFFSET 8.77824 4.35084 1.2192
    CHANNELS 3 Zrotation Xrotation Yrotation
    JOINT lThigh
    {
      OFFSET 0 -1.70687 -2.19456
      CHANNELS 3 Zrotation Xrotation Yrotation
      JOINT lShin
      {
        OFFSET 0 -36.8199 0.73152
        CHANNELS 3 Zrotation Xrotation Yrotation
        JOINT lFoot
        {
          OFFSET -0.73152 -45.1104 -5.12064
          CHANNELS 3 Zrotation Xrotation Yrotation
          End Site
          {
            OFFSET 1.1221 -3.69964 12.103
          }
        }
      }
    }
  }
}
MOTION
Frames:	4
Frame Time:	0.03333
0.0003999999989900971 43.65310072898865 0.018000000272877514 175.05500269138045 -70.02949925822303 -168.89000564463527 -10.828100381801729 18.11110035793506 15.189300817807224 -5.413090122435655 -12.809399948691736 3.114960064620148 0.271204987352374 15.07159958293498 15.984099195670343 -2.5977599979768 -17.550900195041663 30.33379900975375 -0.0 0.0 0.0 -0.0 0.0 0.0 2.1425199289576871e-13 -1.865689925767744e-11 -9.422590281372393e-13 72.11119748327035 52.268698812250406 -16.779000026371012 -27.600200209563734 -42.150200443699646 87.86940012497357 -0.03374130125252827 5.236460149838655 0.7380120250210741 -2.143310002113291e-09 2.184750045412082e-09 3.4549200626586095e-09 -3.677420138663077e-09 3.769979845864358e-09 5.975580017490774e-09 -2.143310002113291e-09 2.1847399073940347e-09 3.4549001841918504e-09 7.730910121524428 5.474879855648998 0.41731399283890674 -2.143310002113291e-09 2.184750045412082e-09 3.4549001841918504e-09 2.90554006136521 0.9651829962377875 0.10290200252939893 -2.1433000628799117e-09 2.184750045412082e-09 3.45491012342523e-09 10.278599710243157 0.7318009818271524 0.025912300303053633 -2.143310002113291e-09 2.1847599846454618e-09 3.45491012342523e-09 2.221669932038622 -0.7334870246959406 -0.20891999872313852 2.141820105982426e-13 -1.865689925767744e-11 -9.425119738617233e-13 -42.252100035927064 45.81259910307926 -27.09399952224846 25.913599399697684 -46.437899506499335 -96.48390108357127 1.0372599548365222 -27.62470009811657 4.2178501332525595 8.790289806441609e-10 -3.434729951236846e-10 9.95206989948321e-10 1.5055599868439623e-09 -6.04140000634632e-10 1.7335400591722576e-09 8.790240110274711e-10 -3.434739890470226e-10 9.95206989948321e-10 -7.730910121524428 5.474879855648998 -0.41731399283890674 8.790309684908368e-10 -3.434710072770087e-10 9.95205002101645e-10 -2.90554006136521 0.9651829962377875 -0.10290200252939893 8.79026992797485e-10 -3.434699885055873e-10 9.952089777949968e-10 -10.278599710243157 0.7318009818271524 -0.025912300303053633 8.790299745674989e-10 -3.434680006589114e-10 9.95205996024983e-10 -2.221669932038622 -0.7334870246959406 0.20891999872313852 -2.0321699793705798e-16 0.0 -3.882510030490358e-19 -73.35069923270923 -50.01429925403932 -59.541197372534846 -164.6319974141576 86.16229679476642 166.11100657703216 4.702960050184483 -24.187899171927896 5.2533699906763145 2.0321699793705798e-16 0.0 3.882510030490358e-19 55.74900121326289 -52.081599440316246 41.92200040843493 79.49179744754856 89.20449720203595 -82.39809758090236 1.0656499562867976 -27.1294994304596 7.100399991314918
0.02400000071247632 43.46829950809479 0.04999999946448952 175.42100520824476 -70.05630092052616 -169.2570053691184 -10.769100353977514 18.060799429792503 15.157299673998422 -5.337789848157203 -12.837999658293871 3.119640024862076 0.16606000139235316 15.064699384325973 15.993499243515572 -2.4854100028758483 -17.565100158326118 30.372700352171556 -0.0 0.0 0.0 -0.0 0.0 0.0 1.8536800074434298e-13 -8.131359819074203e-12 -4.0353899016871996e-13 72.15030031626867 52.156700785335126 -16.914700517253532 -27.60600074771637 -42.12899953651593 87.82930008435642 -0.03205200003666041 5.104179876183019 0.7192680115870022 -5.281380126242157e-10 3.423460102988582e-10 1.8975600713873257e-09 -8.983769905178401e-10 5.868449891116708e-10 3.281680019991314e-09 -5.281300115413453e-10 3.4234099098600156e-10 1.8975499333692785e-09 7.730910121524428 5.474879855648998 0.41731399283890674 -5.281380126242157e-10 3.423449915274368e-10 1.8975499333692785e-09 2.90554006136521 0.9651829962377875 0.10290200252939893 -5.281290176180073e-10 3.423449915274368e-10 1.8975600713873257e-09 10.278599710243157 0.7318009818271524 0.025912300303053633 -5.281439761642435e-10 3.423510047636315e-10 1.8975600713873257e-09 2.221669932038622 -0.7334870246959406 -0.20891999872313852 1.8522500293597914e-13 -8.131349724540302e-12 -4.037930035842897e-13 -42.28600167987242 45.791200120409606 -27.095000144961865 25.910599239104755 -46.44350026161875 -96.49590172594299 1.0809799957137738 -28.14300046554653 4.311329809780646 2.843359977040624e-11 -2.3433598844178137e-10 7.528889771159882e-10 3.684689992133898e-11 -3.982980052300796e-10 1.2943199689428801e-09 2.8426800713572525e-11 -2.3433998898321666e-10 7.528910146588311e-10 -7.730910121524428 5.474879855648998 -0.41731399283890674 2.8434199230419444e-11 -2.3433499451844344e-10 7.528910146588311e-10 -2.90554006136521 0.9651829962377875 -0.10290200252939893 2.843209956736801e-11 -2.3433400059510546e-10 7.528889771159882e-10 -10.278599710243157 0.7318009818271524 -0.025912300303053633 2.8439398691881134e-11 -2.343330066717675e-10 7.528799821097797e-10 -2.221669932038622 -0.7334870246959406 0.20891999872313852 -2.0321699793705798e-16 0.0 -3.882510030490358e-19 -73.52070264115085 -50.115099185810365 -59.658396588503095 -165.52199838376694 85.92479745694673 167.02700324662257 4.61210017808992 -24.210800796214947 5.045179848358802 2.0321699793705798e-16 0.0 3.882510030490358e-19 56.20900079348491 -52.16819940880284 42.23750050657616 103.97099735738834 89.19059776707498 -106.90000103954324 1.1196199766741226 -27.176299886652526 7.205479890374625
0.03900000142493809 43.32279860973358 0.08999999845400453 175.80099595252926 -70.09099828150983 -169.56899475002623 -10.62699997584269 18.024000078091767 15.167300778490613 -5.382300056544061 -12.870899825752177 3.1257500559614755 0.17096299665915127 15.010399380424372 15.96570037359362 -2.4327900120666586 -17.52129986272612 30.330800556708112 -0.0 0.0 0.0 -0.0 0.0 0.0 1.1016799394527228e-13 -1.7065199752419534e-12 -8.243550056334345e-14 72.29439681718843 51.988401509091425 -17.128400060910305 -27.608700379985816 -42.11900013957103 87.81040095092298 -0.030707900183302557 4.99571006886087 0.7039039812967345 7.328040227833806e-10 -7.127100237483976e-10 -9.12864976173784e-11 1.2694800356653176e-09 -1.2332099840012455e-09 -1.6010699815373856e-10 7.32815999559603e-10 -7.127169812117632e-10 -9.129539944327398e-11 7.730910121524428 5.474879855648998 0.41731399283890674 7.328050167067186e-10 -7.127139994417494e-10 -9.128910045411967e-11 2.90554006136521 0.9651829962377875 0.10290200252939893 7.328130177895891e-10 -7.127139994417494e-10 -9.129090194016972e-11 10.278599710243157 0.7318009818271524 0.025912300303053633 7.32797015623848e-10 -7.127079862055548e-10 -9.128849788809604e-11 2.221669932038622 -0.7334870246959406 -0.20891999872313852 1.1001799548058518e-13 -1.7064999802998032e-12 -8.267499702000371e-14 -42.16960159603706 45.840899991905204 -27.22500084298201 25.908599701225235 -46.44719880905431 -96.50389987746107 1.1094100178037172 -28.469700366379286 4.370869849436117 -1.7094699940641934e-10 -5.423190126331899e-10 9.67530995818231e-10 -3.143009972814681e-10 -9.282759935856054e-10 1.6613899713619281e-09 -1.7095300021857225e-10 -5.423229883265417e-10 9.675339775882447e-10 -7.730910121524428 5.474879855648998 -0.41731399283890674 -1.709460054830814e-10 -5.423190126331899e-10 9.675339775882447e-10 -2.90554006136521 0.9651829962377875 -0.10290200252939893 -1.709509999478546e-10 -5.423180187098519e-10 9.67531989741569e-10 -10.278599710243157 0.7318009818271524 -0.025912300303053633 -1.7093899832354879e-10 -5.423170247865139e-10 9.675240383548651e-10 -2.221669932038622 -0.7334870246959406 0.20891999872313852 -2.0321699793705798e-16 0.0 -3.882510030490358e-19 -73.73280050544726 -50.18189843589309 -59.85979837655926 -166.28400160833024 85.69449713851225 167.80799439707852 4.564579990713202 -24.22540032556585 4.92211990319586 2.0321699793705798e-16 0.0 3.882510030490358e-19 56.71319852782609 -52.33789887382639 42.57549924784341 124.82900172401659 89.03909734109493 -127.78200669091493 1.1837799989728721 -27.19939958642551 7.335090413838434
0.07680000112486596 43.15130114555359 0.1269999978831038 176.03900072434752 -70.17849983496686 -169.78899514319232 -10.401800101170908 18.00070059528556 15.219099225608696 -5.546610075425649 -12.907999705776394 3.133289944474935 0.2857270100644525 14.908499788196952 15.90079991610016 -2.4395600101946107 -17.419000704432253 30.20809962336342 -0.0 0.0 0.0 -0.0 0.0 0.0 -1.1348100298562837e-14 6.176509942037299e-13 2.1052899654493184e-14 72.5413969481436 51.76369853068176 -17.418700176108775 -27.60830081391937 -42.12030129060791 87.81279834732166 -0.029670498502040756 4.91104005570163 0.6919140110956002 1.639519980410516e-09 -9.80423970573546e-10 -2.5116299625221545e-09 2.8261599845887712e-09 -1.6902000320206272e-09 -4.3497798566604204e-09 1.6395300190362292e-09 -9.804300335059077e-10 -2.5116299625221545e-09 7.730910121524428 5.474879855648998 0.41731399283890674 1.639519980410516e-09 -9.804280456592317e-10 -2.5116299625221545e-09 2.90554006136521 0.9651829962377875 0.10290200252939893 1.6395300190362292e-09 -9.8042695234356e-10 -2.5116299625221545e-09 10.278599710243157 0.7318009818271524 0.025912300303053633 1.639519980410516e-09 -9.804209888035321e-10 -2.5116200232887747e-09 2.221669932038622 -0.7334870246959406 -0.20891999872313852 -1.1438399817153612e-14 6.176640006224103e-13 2.0840600504991712e-14 -41.90149959564114 45.96080054769019 -27.484800748441785 25.90760078605912 -46.44899856390061 -96.5079023683147 1.121199991528217 -28.605100328938324 4.395590011589685 2.80888003100438e-10 -1.267420030155067e-09 1.6391400035184148e-09 4.521189788285535e-10 -2.1940800037854878e-09 2.834739928411354e-09 2.808840025590027e-10 -1.267420030155067e-09 1.6391400035184148e-09 -7.730910121524428 5.474879855648998 -0.41731399283890674 2.808899909471139e-10 -1.267420030155067e-09 1.6391400035184148e-09 -2.90554006136521 0.9651829962377875 -0.10290200252939893 2.8087798932280807e-10 -1.267420030155067e-09 1.6391400035184148e-09 -10.278599710243157 0.7318009818271524 -0.025912300303053633 2.808939914885492e-10 -1.267420030155067e-09 1.6391400035184148e-09 -2.221669932038622 -0.7334870246959406 0.20891999872313852 -2.0321699793705798e-16 0.0 -3.882510030490358e-19 -73.98680158030169 -50.213901287249186 -60.144999755542315 -166.94000029697494 85.47160074513805 168.48100025675654 4.5604998064577655 -24.231800212818154 4.884260164626479 2.0321699793705798e-16 0.0 3.882510030490358e-19 57.26450066177825 -52.59019923157749 42.93889946263394 139.12200584534702 88.78980226657863 -142.10100651222643 1.2579799724647172 -27.198600454292617 7.489159844720057
